A lazy law school grad adopts a kid to impress his girlfriend, but everything doesn't go as planned and he becomes the unlikely foster father.
 


Director: 
Dennis Dugan

 Writers: 
Steve Franks (story), Steve Franks (screenplay), and 2 more credits » 

Stars:
 Adam Sandler, Joey Lauren Adams and Jon Stewart 

General

Format : AVI
Format/Info : Audio Video Interleave
File size : 1.13 GiB
Duration : 1h 29mn
Overall bit rate : 1 818 Kbps
Movie name : DVD_VIDEO.Title1.DVDRip
Writing application : Lavf52.33.0

Video

ID : 0
Format : AVC
Format/Info : Advanced Video Codec
Format profile : Baseline@L1.3
Format settings, CABAC : No
Format settings, ReFrames : 1 frame
Codec ID : H264
Duration : 1h 29mn
Bit rate : 1 423 Kbps
Width : 736 pixels
Height : 408 pixels
Display aspect ratio : 16:9
Frame rate : 25.000 fps
Color space : YUV
Chroma subsampling : 4:2:0
Bit depth : 8 bits
Scan type : Progressive
Bits/(Pixel*Frame) : 0.190
Stream size : 909 MiB (78%)
Writing library : x264 core 67

Audio

ID : 1
Format : AC-3
Format/Info : Audio Coding 3
Mode extension : CM (complete main)
Codec ID : 2000
Duration : 1h 29mn
Bit rate mode : Constant
Bit rate : 384 Kbps
Channel(s) : 6 channels
Channel positions : Front: L C R, Side: L R, LFE
Sampling rate : 48.0 KHz
Bit depth : 16 bits
Compression mode : Lossy
Stream size : 245 MiB (21%)
Alignment : Aligned on interleaves
Interleave, duration : 32 ms (0.80 video frame)


Please Seed.!

Reaper_Silently